<svg width="112" height="21" viewBox="0 0 112 21" fill="none" xmlns="http://www.w3.org/2000/svg">
<path d="M19.5791 20.0142V6.57504H22.6335V7.42232C22.6335 7.8984 23.2735 8.13567 23.6371 7.82829C24.0224 7.50248 24.4322 7.23014 24.8614 7.00624C25.7238 6.57504 26.6221 6.35944 27.5923 6.35944C28.0235 6.35944 28.4907 6.39537 29.0297 6.50317L28.6703 9.0904C28.1673 9.01853 27.6642 8.94666 27.233 8.94666C25.8675 8.94666 24.7536 9.34193 23.9271 10.0965C23.0647 10.8511 22.6694 11.7495 22.6694 12.7556V20.0142H19.5791Z" fill="currentColor"/>
<path d="M41.4988 20.0141V18.0737C40.7083 18.8643 39.8458 19.4392 38.9116 19.8345C37.9773 20.1938 36.8993 20.3735 35.6416 20.3735C33.9168 20.3735 32.5513 20.0141 31.617 19.2955C30.6828 18.5768 30.1797 17.5707 30.1797 16.2411C30.1797 14.7678 30.7906 13.6898 32.0123 12.9711C33.2341 12.2525 35.1745 11.8572 37.8336 11.7853L40.96 11.6906C41.2001 11.6833 41.391 11.4866 41.391 11.2463C41.391 9.4137 40.1693 8.51536 37.7617 8.51536C36.5759 8.51536 35.6775 8.6591 35.0307 8.94657C34.3839 9.23404 33.9887 9.66524 33.7731 10.2402L31.0062 9.91678C31.3296 8.62316 32.0123 7.65295 33.1263 7.04208C34.2761 6.46714 35.8572 6.14374 37.8695 6.14374C40.0615 6.14374 41.7144 6.57494 42.7565 7.43735C43.8345 8.29976 44.3376 9.62931 44.3376 11.3901V20.0141H41.4988ZM41.391 13.7257L37.8695 13.8335C36.2525 13.8695 35.0667 14.0851 34.348 14.4444C33.6293 14.8038 33.27 15.3068 33.27 16.0255C33.27 16.6723 33.5575 17.1754 34.0965 17.4988C34.6355 17.8222 35.426 18.0378 36.3962 18.0378C37.1508 18.0378 37.8336 17.93 38.5163 17.7144C39.199 17.4988 39.774 17.1754 40.2771 16.7801C40.9957 16.2411 41.3551 15.5224 41.3551 14.6241V13.7257H41.391Z" fill="currentColor"/>
<path d="M52.0275 20.0142L45.7031 6.575H49.1528L53.2566 15.9782C53.4315 16.3791 54.0003 16.3788 54.1748 15.9776L58.2799 6.53906H61.6218L55.3334 20.0142H52.0275Z" fill="currentColor"/>
<path d="M69.5626 20.0141L63.2383 6.57495H66.6879L70.7923 16.0117C70.9668 16.4131 71.5361 16.4131 71.7107 16.0117L75.8151 6.57495H79.1569L72.8326 20.0141H69.5626Z" fill="currentColor"/>
<path d="M95.6856 13.2227C95.6856 14.6241 95.3622 15.8818 94.7154 16.9598C94.0686 18.0378 93.1343 18.9002 91.9485 19.5111C90.7268 20.1219 89.2894 20.4453 87.6724 20.4453C85.2289 20.4453 83.3244 19.7985 81.923 18.5409C80.5216 17.2832 79.8389 15.5584 79.8389 13.3305C79.8389 11.9291 80.1623 10.6714 80.8091 9.59337C81.4559 8.51536 82.3542 7.65295 83.576 7.04208C84.7618 6.46714 86.1632 6.14374 87.8161 6.14374C90.2596 6.14374 92.2 6.79054 93.6015 8.04822C94.9669 9.3059 95.6856 11.0307 95.6856 13.2227ZM92.4875 13.2945C92.4875 11.7853 92.0922 10.6354 91.2658 9.80897C90.4393 8.9825 89.2894 8.58723 87.7802 8.58723C86.271 8.58723 85.1211 8.9825 84.2946 9.80897C83.4682 10.6354 83.037 11.7853 83.037 13.2945C83.037 14.8038 83.4322 15.9536 84.2587 16.7801C85.0852 17.6066 86.2351 18.0019 87.7083 18.0019C89.2176 18.0019 90.4034 17.6066 91.2298 16.7801C92.0563 15.9536 92.4875 14.7678 92.4875 13.2945Z" fill="currentColor"/>
<path d="M108.334 20.0141L104.328 15.4167C104.128 15.1876 103.772 15.1876 103.573 15.4167L99.5664 20.0141H96.0449L102.19 13.043L96.5121 6.57495H100.177L103.612 10.5278C103.81 10.7562 104.164 10.7578 104.365 10.5313L107.867 6.57495H111.389L105.747 12.8633L111.999 20.0141H108.334Z" fill="currentColor"/>
<path fill-rule="evenodd" clip-rule="evenodd" d="M0.00218378 1.98589C0.00218378 1.98589 -0.00272921 7.40612 0.002183 10.8791L0.00218553 10.8809L0.00218505 16.3808C0.00218486 18.5703 1.7772 20.3454 3.96678 20.3454L12.5898 20.3454C14.7794 20.3454 16.5544 18.5703 16.5544 16.3808L16.5544 10.8303C16.5544 8.64073 14.7794 6.86572 12.5898 6.86572L8.5905 6.86572C7.91077 6.86572 7.27741 6.52102 6.90834 5.95021L3.64912 0.90956C2.57636 -0.74955 0.00218395 0.010175 0.00218378 1.98589ZM13.3827 12.3983C13.3827 11.0459 12.2879 9.94956 10.9375 9.94956L6.12595 9.94956C4.77548 9.94956 3.68072 11.0459 3.68072 12.3983L3.68072 14.3059C3.68072 15.6583 4.77548 16.7547 6.12595 16.7547H10.9375C11.2088 16.7547 11.4794 16.8625 11.6269 17.0902L12.0254 17.7053C12.4247 18.3216 13.3827 18.0394 13.3827 17.3055V14.3059L13.3827 14.5093L13.3827 14.5087L13.3827 12.3983Z" fill="#DF5664"/>
</svg>
