<svg width="33" height="40" viewBox="0 0 33 40" fill="none" xmlns="http://www.w3.org/2000/svg">
<path fill-rule="evenodd" clip-rule="evenodd" d="M0.00433437 3.90436C0.00433437 3.90436 -0.00541693 14.5608 0.00433283 21.389L0.00433784 21.3925L0.00433689 32.2054C0.00433651 36.5102 3.52738 40 7.87327 40H24.9882C29.3341 40 32.8571 36.5102 32.8571 32.2054L32.8571 21.293C32.8571 16.9881 29.3341 13.4983 24.9882 13.4983L17.0504 13.4983C15.7013 13.4983 14.4442 12.8207 13.7117 11.6984L7.24278 1.78824C5.11357 -1.47365 0.00433471 0.0200046 0.00433437 3.90436ZM26.562 24.3757C26.562 21.7168 24.3891 19.5613 21.7087 19.5613H12.1588C9.47838 19.5613 7.30549 21.7168 7.30549 24.3757L7.30548 28.1262C7.30548 30.7851 9.47838 32.9405 12.1588 32.9405H21.7087C22.2472 32.9405 22.7843 33.1526 23.0771 33.6002L23.8681 34.8096C24.6605 36.0211 26.562 35.4663 26.562 34.0236V28.1262L26.562 28.5259L26.562 28.5248L26.562 24.3757Z" fill="#DF5664"/>
</svg>
