<?xml version="1.0" encoding="UTF-8"?>
<svg width="20px" height="25px" viewBox="0 0 20 25" version="1.1" xmlns="http://www.w3.org/2000/svg" xmlns:xlink="http://www.w3.org/1999/xlink">
    <title>BA26B522-D3AA-4147-B30E-8B1138F1498B</title>
    <g id="Page-1" stroke="none" stroke-width="1" fill="none" fill-rule="evenodd">
        <g id="Main" transform="translate(-179.000000, -743.000000)" fill="#FFFFFF">
            <g id="Bottom-Nav" transform="translate(0.000000, 726.000000)">
                <g id="Actions-/-Create" transform="translate(165.000000, 7.000000)">
                    <g id="bravvox-B" transform="translate(14.000000, 10.000000)">
                        <path d="M0.0025819067,2.35068175 C0.0025819067,2.35068175 -0.00322676914,8.76652847 0.00258098542,12.8775147 L0.00258397553,12.8796158 L0.00258339367,19.3896754 C0.00258316739,21.9815383 2.10119336,24.0825377 4.68995305,24.0825377 L14.8849965,24.0825377 C17.47374,24.0825377 19.572315,21.9815383 19.572315,19.3896754 L19.572315,12.8197004 C19.572315,10.2279183 17.47374,8.12685424 14.8849965,8.12685424 L9.21973297,8.12685424 C9.0002263,8.12685424 8.79571868,8.0154927 8.6766475,7.83109158 L4.3143786,1.07663468 C3.04605315,-0.88723326 0.00258210065,0.0120437973 0.0025819067,2.35068175 Z M15.8224699,14.6756883 C15.8224699,13.0748783 14.5281224,11.777169 12.9314663,11.777169 L7.24275056,11.777169 C5.64609446,11.777169 4.35174694,13.0748783 4.35174694,14.6756883 L4.35174694,16.9337414 C4.35174694,18.5345028 5.64609446,19.8322122 7.24275056,19.8322122 L12.9314663,19.8322122 C13.0372516,19.8322122 13.1417117,19.8265552 13.2445554,19.8154029 C13.3746496,19.8015029 13.5048246,19.8559715 13.5759085,19.9657168 L14.2177486,20.9576264 C14.6897825,21.6870525 15.8224699,21.3529679 15.8224699,20.4843803 L15.8224699,16.9337414 L15.8224699,17.1744051 L15.8224699,17.1737586 L15.8224699,14.6756883 Z" id="Shape"></path>
                    </g>
                </g>
            </g>
        </g>
    </g>
</svg>