<?xml version="1.0" encoding="UTF-8"?>
<svg width="19px" height="18px" viewBox="0 0 19 18" version="1.1" xmlns="http://www.w3.org/2000/svg" xmlns:xlink="http://www.w3.org/1999/xlink">
    <title>E7E08E12-09FA-465F-B330-F871777F6324</title>
    <g id="Master" stroke="none" stroke-width="1" fill="none" fill-rule="evenodd">
        <g id="Main---Long" transform="translate(-285.000000, -49.000000)" fill="currentColor" fill-rule="nonzero">
            <g id="bubble---simple-line-icons-copy" transform="translate(285.000000, 48.000000)">
                <path d="M7.88574219,12.8564453 C8.94954427,12.8564453 9.9453125,12.7111003 10.8730469,12.4204102 C11.8007813,12.1297201 12.6048177,11.7184245 13.2851563,11.1865234 C13.9654948,10.6546224 14.4973958,10.0144857 14.8808594,9.26611328 C15.2643229,8.51774089 15.4498698,7.69205729 15.4375,6.7890625 C15.4375,5.98502604 15.2364909,5.23046875 14.8344727,4.52539062 C14.4324544,3.8203125 13.8850911,3.20800781 13.1923828,2.68847656 C12.4996745,2.16894531 11.6863607,1.75764974 10.7524414,1.45458984 C9.81852214,1.15152995 8.81966146,1 7.75585938,1 C6.6796875,1 5.67154948,1.15152995 4.73144531,1.45458984 C3.79134115,1.75764974 2.96875,2.16894531 2.26367188,2.68847656 C1.55859375,3.20800781 1.00504557,3.8203125 0.603027344,4.52539062 C0.201009115,5.23046875 0,5.98502604 0,6.7890625 C0,7.28385417 0.0618489583,7.78483073 0.185546875,8.29199219 C0.309244792,8.79915365 0.494791667,9.28157552 0.7421875,9.73925781 C0.989583333,10.1969401 1.30501302,10.617513 1.68847656,11.0009766 C2.0719401,11.3844401 2.5172526,11.7060547 3.02441406,11.9658203 C3.02441406,11.9781901 3.02441406,11.984375 3.02441406,11.984375 C3.02441406,11.984375 3.02441406,11.9905599 3.02441406,12.0029297 C3.02441406,12.4358724 2.8914388,12.9090169 2.62548828,13.4223633 C2.35953776,13.9357096 2.15234375,14.3160807 2.00390625,14.5634766 L2.02246094,14.5634766 C2.01009115,14.5882161 2.0008138,14.6129557 1.99462891,14.6376953 C1.98844401,14.6624349 1.98535156,14.6933594 1.98535156,14.7304688 C1.98535156,14.8541667 2.02555339,14.9593099 2.10595703,15.0458984 C2.18636068,15.132487 2.28841146,15.1757812 2.41210938,15.1757812 C2.43684896,15.1757812 2.46158854,15.1726888 2.48632813,15.1665039 C2.51106771,15.160319 2.5234375,15.1572266 2.5234375,15.1572266 C2.53580729,15.1572266 2.54199219,15.1572266 2.54199219,15.1572266 C2.54199219,15.1572266 2.54199219,15.1572266 2.54199219,15.1572266 C2.92545573,15.0953776 3.3367513,14.9593099 3.77587891,14.7490234 C4.21500651,14.538737 4.63248698,14.3037109 5.02832031,14.0439453 C5.42415365,13.7841797 5.76741536,13.5367839 6.05810547,13.3017578 C6.34879557,13.0667318 6.5374349,12.8997396 6.62402344,12.8007812 C6.79720052,12.8255208 6.94873047,12.8409831 7.07861328,12.847168 C7.20849609,12.8533529 7.34147135,12.8564453 7.47753906,12.8564453 C7.53938802,12.8564453 7.60432943,12.8564453 7.67236328,12.8564453 C7.74039714,12.8564453 7.81152344,12.8564453 7.88574219,12.8564453 Z M6.14160156,11.5761719 L5.38085938,12.2070312 C5.29427083,12.3183594 5.08707682,12.5069987 4.75927734,12.7729492 C4.43147786,13.0388997 4.10058594,13.2708333 3.76660156,13.46875 C3.97688802,12.8997396 4.09440104,12.5069987 4.11914062,12.2905273 C4.14388021,12.074056 4.15625,11.9658203 4.15625,11.9658203 L4.21191406,11.2421875 L3.5625,10.9082031 C2.74609375,10.4876302 2.14615885,9.88769531 1.76269531,9.10839844 C1.37923177,8.32910156 1.1875,7.55598958 1.1875,6.7890625 C1.1875,6.14583333 1.35758464,5.54589844 1.69775391,4.98925781 C2.03792318,4.43261719 2.50797526,3.94710286 3.10791016,3.53271484 C3.70784505,3.11832682 4.40673828,2.79052734 5.20458984,2.54931641 C6.00244141,2.30810547 6.85286458,2.1875 7.75585938,2.1875 C8.65885417,2.1875 9.5061849,2.30810547 10.2978516,2.54931641 C11.0895182,2.79052734 11.7760417,3.11832682 12.3574219,3.53271484 C12.9388021,3.94710286 13.3995768,4.43261719 13.7397461,4.98925781 C14.0799154,5.54589844 14.25,6.14583333 14.25,6.7890625 C14.25,7.49414062 14.0891927,8.14664714 13.7675781,8.74658203 C13.4459635,9.34651693 13.0037435,9.86604818 12.440918,10.3051758 C11.8780924,10.7443034 11.2101237,11.0844727 10.4370117,11.3256836 C9.66389974,11.5668945 8.82584635,11.6875 7.92285156,11.6875 C7.92285156,11.6875 7.80533854,11.6875 7.5703125,11.6875 C7.33528646,11.6875 7.07552083,11.6689453 6.79101562,11.6318359 L6.14160156,11.5761719 Z M19,11.5761719 C19,10.7721354 18.8299154,10.0608724 18.4897461,9.44238281 C18.1495768,8.82389323 17.5898438,8.28580729 16.8105469,7.828125 C16.7858073,8.03841146 16.7456055,8.25488281 16.6899414,8.47753906 C16.6342773,8.70019531 16.5755208,8.91048177 16.5136719,9.10839844 C17.0208333,9.4671224 17.3640951,9.83821615 17.543457,10.2216797 C17.722819,10.6051432 17.8125,11.0566406 17.8125,11.5761719 C17.8125,12.219401 17.6578776,12.7791341 17.3486328,13.2553711 C17.039388,13.7316081 16.5322266,14.1490885 15.8271484,14.5078125 L15.2519531,14.7861328 C15.2519531,14.7861328 15.2643229,15.0582682 15.2890625,15.6025391 C15.3138021,16.1468099 15.3509115,16.5117188 15.4003906,16.6972656 C14.8190104,16.2766927 14.4138997,15.9117839 14.1850586,15.6025391 C13.9562174,15.2932943 13.8417969,15.1386719 13.8417969,15.1386719 L13.2109375,15.2314453 C13.0872396,15.2561849 12.9047852,15.2685547 12.6635742,15.2685547 C12.4223633,15.2685547 12.3017578,15.2685547 12.3017578,15.2685547 C11.4977214,15.2685547 10.7864583,15.1726888 10.1679688,14.980957 C9.54947917,14.7892253 8.98665365,14.4954427 8.47949219,14.0996094 C8.6155599,14.0872396 8.37125651,14.0810547 7.74658203,14.0810547 C7.12190755,14.0810547 6.79720052,14.0934245 6.77246094,14.1181641 C7.06933594,14.476888 7.40950521,14.8015951 7.79296875,15.0922852 C8.17643229,15.3829753 8.6031901,15.6303711 9.07324219,15.8344727 C9.54329427,16.0385742 10.0473633,16.1931966 10.5854492,16.2983398 C11.1235352,16.4034831 11.695638,16.4560547 12.3017578,16.4560547 C12.3636068,16.4560547 12.4223633,16.4560547 12.4780273,16.4560547 C12.5336914,16.4560547 12.5924479,16.4560547 12.6542969,16.4560547 C12.7779948,16.4560547 12.8955078,16.4529622 13.0068359,16.4467773 C13.1181641,16.4405924 13.2480469,16.4313151 13.3964844,16.4189453 C13.5325521,16.5921224 13.9345703,16.9570312 14.6025391,17.5136719 C15.2705078,18.0703125 15.9322917,18.4042969 16.5878906,18.515625 C16.5878906,18.515625 16.5878906,18.515625 16.5878906,18.515625 C16.5878906,18.515625 16.5940755,18.515625 16.6064453,18.515625 C16.6064453,18.515625 16.6188151,18.515625 16.6435547,18.515625 C16.6682943,18.515625 16.686849,18.515625 16.6992188,18.515625 C16.8105469,18.515625 16.9033203,18.4785156 16.9775391,18.4042969 C17.0517578,18.3300781 17.0888672,18.2373047 17.0888672,18.1259766 C17.0888672,18.101237 17.0857747,18.0764974 17.0795898,18.0517578 C17.0734049,18.0270182 17.0641276,18.0022786 17.0517578,17.9775391 L17.0517578,17.9775391 C16.9280599,17.7672526 16.7919922,17.4085286 16.6435547,16.9013672 C16.4951172,16.3942057 16.4208984,15.9488932 16.4208984,15.5654297 C16.4208984,15.5654297 16.4208984,15.5623372 16.4208984,15.5561523 C16.4208984,15.5499674 16.4208984,15.5406901 16.4208984,15.5283203 C17.2991536,15.0830078 17.9485677,14.5294596 18.3691406,13.8676758 C18.7897135,13.2058919 19,12.4420573 19,11.5761719 Z" id="icon_message"></path>
            </g>
        </g>
    </g>
</svg>