<?xml version="1.0" encoding="UTF-8"?>
<svg width="20px" height="20px" viewBox="0 0 16 15" version="1.1" xmlns="http://www.w3.org/2000/svg" xmlns:xlink="http://www.w3.org/1999/xlink">
    <title>B75E6D81-8E56-4E02-BC74-B437C03C2FCD</title>
    <g id="Master" stroke="none" stroke-width="1" fill="none" fill-rule="evenodd">
        <g id="Home" transform="translate(-586.000000, -1049.000000)" fill="#A4A4A4" fill-rule="nonzero">
            <g id="Post---Image" transform="translate(426.000000, 311.000000)">
                <g id="Comments" transform="translate(21.000000, 664.000000)">
                    <g id="Posts-/-Comments-/-Comment---Default" transform="translate(0.000000, 32.000000)">
                        <g id="Icon-Dislike" transform="translate(139.993737, 39.000000)">
                            <g id="icon__dislike" transform="translate(0.000000, 3.875000)">
                                <path d="M5.68861407,0 C7.68482461,0 8.87434733,0.0432942708 9.25718223,0.129882812 C9.64001712,0.216471354 9.95448865,0.350911458 10.2005968,0.533203125 C10.3282084,0.633463542 10.5606439,0.720052083 10.8979032,0.79296875 C11.2351625,0.865885417 11.8504329,0.9296875 12.7437143,0.984375 C12.8166353,0.993489583 12.8827199,1.0094401 12.9419681,1.03222656 C13.0012164,1.05501302 13.0490707,1.09375 13.0855312,1.1484375 C13.1037614,1.17578125 13.2655548,1.49707031 13.5709112,2.11230469 C13.8762676,2.72753906 14.0289458,3.55924479 14.0289458,4.60742188 C14.0289458,5.64648438 13.9195644,6.40983073 13.7008016,6.89746094 C13.4820388,7.38509115 13.3680998,7.64257812 13.3589847,7.66992188 C13.3134091,7.73372396 13.2587184,7.78385417 13.1949126,7.8203125 C13.1311068,7.85677083 13.0581859,7.875 12.9761498,7.875 C12.6115451,7.875 12.2150376,7.98893229 11.7866271,8.21679688 C11.3582166,8.44466146 10.9275273,8.7796224 10.4945593,9.22167969 C10.0615913,9.66373698 9.63773835,10.2060547 9.22300054,10.8486328 C8.80826273,11.4912109 8.42770661,12.2272135 8.08133218,13.0566406 C7.96283567,13.3391927 7.84889671,13.5670573 7.73951531,13.7402344 C7.63013391,13.9134115 7.35668041,14 6.91915481,14 C6.66393155,14 6.41098706,13.9202474 6.16032135,13.7607422 C5.90965565,13.601237 5.71595942,13.4075521 5.57923267,13.1796875 C5.44250592,12.9518229 5.35135475,12.6647135 5.30577917,12.3183594 C5.26020359,11.9720052 5.24653091,11.6097005 5.26476115,11.2314453 C5.28299138,10.8531901 5.32173062,10.4817708 5.38097888,10.1171875 C5.44022714,9.75260417 5.50175418,9.43815104 5.56555999,9.17382812 C5.11891928,9.17382812 4.55378205,9.17610677 3.8701483,9.18066406 C3.18651456,9.18522135 2.64872267,9.1875 2.25677266,9.1875 C1.71898078,9.1875 1.28373396,9.04166667 0.951032204,8.75 C0.618330447,8.45833333 0.44742201,8.07552083 0.438306894,7.6015625 C0.438306894,7.44661458 0.44742201,7.28255208 0.465652243,7.109375 C0.483882477,6.93619792 0.515785385,6.79492188 0.561360968,6.68554688 C0.442864452,6.56705729 0.322089157,6.41894531 0.199035082,6.24121094 C0.0759810078,6.06347656 0.00989641233,5.86067708 0.000781295711,5.6328125 C-0.00833382091,5.33203125 0.0623083329,5.07226562 0.212707757,4.85351562 C0.363107181,4.63476562 0.50211271,4.45703125 0.629724343,4.3203125 C0.602378993,4.23828125 0.565918526,4.14029948 0.520342943,4.02636719 C0.47476736,3.9124349 0.456537127,3.78710938 0.465652243,3.65039062 C0.483882477,3.31315104 0.593263876,3.03515625 0.793796442,2.81640625 C0.994329008,2.59765625 1.17663134,2.42903646 1.34070344,2.31054688 C1.32247321,2.21940104 1.31107931,2.09635417 1.30652175,1.94140625 C1.30196419,1.78645833 1.31791565,1.640625 1.35437611,1.50390625 C1.40906681,1.23958333 1.54807234,1.01171875 1.7713927,0.8203125 C1.99471306,0.62890625 2.29095435,0.473958333 2.66011657,0.35546875 C3.02927879,0.236979167 3.46908317,0.148111979 3.9795297,0.0888671875 C4.48997623,0.0296223958 5.05967102,0 5.68861407,0 Z M12.5112789,1.87304688 C11.7273788,1.80924479 11.1121085,1.72949219 10.6654677,1.63378906 C10.218827,1.53808594 9.88612527,1.40820312 9.66736247,1.24414062 C9.49417526,1.10742188 9.25034589,1.01171875 8.93587437,0.95703125 C8.62140284,0.90234375 7.53898274,0.875 5.68861407,0.875 C5.41516057,0.875 5.08701637,0.881835938 4.70418147,0.895507812 C4.32134657,0.909179688 3.95218435,0.943359375 3.5966948,0.998046875 C3.24120526,1.05273438 2.93129129,1.13476562 2.66695291,1.24414062 C2.40261453,1.35351562 2.24765754,1.50390625 2.20208196,1.6953125 C2.17473661,1.85026042 2.21119708,1.99153646 2.31146336,2.11914062 C2.41172964,2.24674479 2.46186278,2.31054688 2.46186278,2.31054688 C2.50743837,2.41992188 2.50743837,2.53157552 2.46186278,2.64550781 C2.4162872,2.7594401 2.34336627,2.83919271 2.24309998,2.88476562 C2.23398487,2.88476562 2.08358544,2.95768229 1.79190171,3.10351562 C1.50021798,3.24934896 1.34981856,3.4453125 1.34070344,3.69140625 C1.33158832,3.84635417 1.36349123,3.9671224 1.43641216,4.05371094 C1.5093331,4.14029948 1.54579356,4.18815104 1.54579356,4.19726562 C1.60959938,4.28841146 1.63010839,4.39322917 1.6073206,4.51171875 C1.58453281,4.63020833 1.52756333,4.72591146 1.43641216,4.79882812 C1.43641216,4.79882812 1.34298222,4.87630208 1.15612233,5.03125 C0.969262437,5.18619792 0.875832491,5.37760417 0.875832491,5.60546875 C0.884947608,5.796875 0.971541216,5.95182292 1.13561332,6.0703125 C1.29968541,6.18880208 1.38627902,6.24804688 1.39539414,6.24804688 C1.45008484,6.28450521 1.49566042,6.32779948 1.53212089,6.37792969 C1.56858135,6.4280599 1.5959267,6.48502604 1.61415694,6.54882812 C1.62327205,6.60351562 1.62099328,6.66276042 1.6073206,6.7265625 C1.59364793,6.79036458 1.56858135,6.84960938 1.53212089,6.90429688 C1.53212089,6.90429688 1.49566042,6.9749349 1.42273949,7.11621094 C1.34981856,7.25748698 1.31335809,7.41471354 1.31335809,7.58789062 C1.32247321,7.94335938 1.46147873,8.15299479 1.73037467,8.21679688 C1.99927062,8.28059896 2.17473661,8.3125 2.25677266,8.3125 C2.53022616,8.3125 2.89027327,8.3125 3.33691398,8.3125 C3.78355469,8.3125 4.21880151,8.3125 4.64265444,8.3125 C5.06650736,8.3125 5.43111202,8.31022135 5.73646843,8.30566406 C6.04182484,8.30110677 6.19450304,8.29882812 6.19450304,8.29882812 C6.27653909,8.29882812 6.34946002,8.31705729 6.41326584,8.35351562 C6.47707166,8.38997396 6.5272048,8.44010417 6.56366526,8.50390625 C6.60924085,8.55859375 6.63430742,8.62239583 6.63886498,8.6953125 C6.64342253,8.76822917 6.63202864,8.84114583 6.60468329,8.9140625 C6.49530189,9.22395833 6.40187194,9.56575521 6.32439345,9.93945312 C6.24691496,10.313151 6.19222426,10.680013 6.16032135,11.0400391 C6.12841845,11.4000651 6.12386089,11.7304688 6.14664868,12.03125 C6.16943647,12.3320312 6.23096351,12.5644531 6.33122979,12.7285156 C6.39503561,12.828776 6.45428386,12.9199219 6.50897456,13.0019531 C6.56366526,13.0839844 6.70039201,13.125 6.91915481,13.125 C6.94650016,13.125 6.99207575,13.1022135 7.05588156,13.0566406 C7.11968738,13.0110677 7.19260831,12.8971354 7.27464436,12.7148438 C7.63924903,11.8398438 8.04259294,11.0582682 8.48467609,10.3701172 C8.92675925,9.68196615 9.38707264,9.09863281 9.86561626,8.62011719 C10.3441599,8.14160156 10.8249823,7.765625 11.3080835,7.4921875 C11.7911846,7.21875 12.2560556,7.05924479 12.7026963,7.01367188 C12.7847324,6.84049479 12.8804411,6.5625 12.9898225,6.1796875 C13.0992039,5.796875 13.1538946,5.27278646 13.1538946,4.60742188 C13.1538946,3.93294271 13.0741373,3.35188802 12.9146228,2.86425781 C12.7551082,2.3766276 12.6206603,2.04622396 12.5112789,1.87304688 Z" id="Shape"></path>
                            </g>
                        </g>
                    </g>
                </g>
            </g>
        </g>
    </g>
</svg>