<?xml version="1.0" encoding="UTF-8"?>
<svg width="20px" height="20px" viewBox="0 0 15 14" version="1.1" xmlns="http://www.w3.org/2000/svg" xmlns:xlink="http://www.w3.org/1999/xlink">
    <title>78C07F81-116D-4A42-B0C4-04352569A86F</title>
    <g id="Master" stroke="none" stroke-width="1" fill="none" fill-rule="evenodd">
        <g id="Profile" transform="translate(-203.000000, -2629.000000)" fill="#DF5A56" fill-rule="nonzero">
            <g id="Posts-/-8-Col-/-Article" transform="translate(90.000000, 2256.000000)">
                <g id="Posts-/-Actions-/-8-Col-/-Liked" transform="translate(21.000000, 367.000000)">
                    <g id="Dislike" transform="translate(89.000000, 4.000000)">
                        <g id="icon__dislike--active" transform="translate(3.000000, 2.000000)">
                            <path d="M9.25664062,0.129882812 C9.63945312,0.216471354 9.95390625,0.350911458 10.2,0.533203125 C10.3276042,0.633463542 10.560026,0.720052083 10.8972656,0.79296875 C11.2345052,0.865885417 11.8497396,0.9296875 12.7429687,0.984375 C12.8158854,0.993489583 12.8819661,1.0094401 12.9412109,1.03222656 C13.0004557,1.05501302 13.0483073,1.09375 13.0847656,1.1484375 C13.1029948,1.17578125 13.2647786,1.49707031 13.5701172,2.11230469 C13.8754557,2.72753906 14.028125,3.55924479 14.028125,4.60742188 C14.028125,5.64648438 13.91875,6.40983073 13.7,6.89746094 C13.48125,7.38509115 13.3673177,7.64257812 13.3582031,7.66992188 C13.3126302,7.73372396 13.2579427,7.78385417 13.1941406,7.8203125 C13.1303385,7.85677083 13.0574219,7.875 12.9753906,7.875 C12.6108073,7.875 12.2143229,7.98893229 11.7859375,8.21679688 C11.3575521,8.44466146 10.926888,8.7796224 10.4939453,9.22167969 C10.0610026,9.66373698 9.63717448,10.2060547 9.22246094,10.8486328 C8.8077474,11.4912109 8.42721354,12.2272135 8.08085937,13.0566406 C7.96236979,13.3391927 7.8484375,13.5670573 7.7390625,13.7402344 C7.6296875,13.9134115 7.35625,14 6.91875,14 C6.66354167,14 6.41061198,13.9202474 6.15996094,13.7607422 C5.9093099,13.601237 5.715625,13.4075521 5.57890625,13.1796875 C5.4421875,12.9518229 5.35104167,12.6647135 5.30546875,12.3183594 C5.25989583,11.9720052 5.24622396,11.6097005 5.26445313,11.2314453 C5.28268229,10.8531901 5.32141927,10.4817708 5.38066406,10.1171875 C5.43990885,9.75260417 5.50143229,9.43815104 5.56523438,9.17382812 C5.11861979,9.17382812 4.55351563,9.17610677 3.86992188,9.18066406 C3.18632813,9.18522135 2.64856771,9.1875 2.25664063,9.1875 C1.71888021,9.1875 1.28365885,9.04166667 0.950976563,8.75 C0.618294271,8.45833333 0.447395833,8.07552083 0.43828125,7.6015625 C0.43828125,7.44661458 0.447395833,7.28255208 0.465625,7.109375 C0.483854167,6.93619792 0.515755208,6.79492188 0.561328125,6.68554688 C0.442838542,6.56705729 0.322070313,6.41894531 0.199023438,6.24121094 C0.0759765625,6.06347656 0.00989583333,5.86067708 0.00078125,5.6328125 C-0.00833333333,5.33203125 0.0623046875,5.07226562 0.212695313,4.85351562 C0.363085938,4.63476562 0.502083333,4.45703125 0.6296875,4.3203125 C0.60234375,4.23828125 0.565885417,4.14029948 0.5203125,4.02636719 C0.474739583,3.9124349 0.456510417,3.78710938 0.465625,3.65039062 C0.483854167,3.31315104 0.593229167,3.03515625 0.79375,2.81640625 C0.994270833,2.59765625 1.1765625,2.42903646 1.340625,2.31054688 C1.32239583,2.21940104 1.3110026,2.09635417 1.30644531,1.94140625 C1.30188802,1.78645833 1.31783854,1.640625 1.35429687,1.50390625 C1.40898437,1.23958333 1.54798177,1.01171875 1.77128906,0.8203125 C1.99459635,0.62890625 2.29082031,0.473958333 2.65996094,0.35546875 C3.02910156,0.236979167 3.46888021,0.148111979 3.97929688,0.0888671875 C4.48971354,0.0296223958 5.059375,0 5.68828125,0 C7.684375,0 8.87382812,0.0432942708 9.25664062,0.129882812 Z" id="Shape"></path>
                        </g>
                    </g>
                </g>
            </g>
        </g>
    </g>
</svg>