<?xml version="1.0" encoding="UTF-8"?>
<svg width="11px" height="12px" viewBox="0 0 11 12" version="1.1" xmlns="http://www.w3.org/2000/svg" xmlns:xlink="http://www.w3.org/1999/xlink">
    <title>57FC082F-0390-4EB5-9AFE-A89BF5091B3A</title>
    <defs>
        <path d="M10.3125,1.03125 L7.5625,1.03125 L7.5625,0.34375 C7.5625,0.250651042 7.52848307,0.170084635 7.46044922,0.102050781 C7.39241536,0.0340169271 7.31184896,0 7.21875,0 C7.12565104,0 7.04508464,0.0340169271 6.97705078,0.102050781 C6.90901693,0.170084635 6.875,0.250651042 6.875,0.34375 L6.875,1.03125 L4.125,1.03125 L4.125,0.34375 C4.125,0.250651042 4.09098307,0.170084635 4.02294922,0.102050781 C3.95491536,0.0340169271 3.87434896,0 3.78125,0 C3.68815104,0 3.60758464,0.0340169271 3.53955078,0.102050781 C3.47151693,0.170084635 3.4375,0.250651042 3.4375,0.34375 L3.4375,1.03125 L0.6875,1.03125 C0.494140625,1.03125 0.331217448,1.09749349 0.198730469,1.22998047 C0.0662434896,1.36246745 0,1.52539062 0,1.71875 L0,10.3125 C0,10.4986979 0.0662434896,10.6598307 0.198730469,10.7958984 C0.331217448,10.9319661 0.494140625,11 0.6875,11 L10.3125,11 C10.5058594,11 10.6687826,10.9319661 10.8012695,10.7958984 C10.9337565,10.6598307 11,10.4986979 11,10.3125 L11,1.71875 C11,1.52539062 10.9337565,1.36246745 10.8012695,1.22998047 C10.6687826,1.09749349 10.5058594,1.03125 10.3125,1.03125 Z M10.3125,10.3125 L0.6875,10.3125 L0.6875,1.71875 L3.4375,1.71875 L3.4375,2.0625 C3.4375,2.15559896 3.47151693,2.23616536 3.53955078,2.30419922 C3.60758464,2.37223307 3.68815104,2.40625 3.78125,2.40625 C3.87434896,2.40625 3.95491536,2.37223307 4.02294922,2.30419922 C4.09098307,2.23616536 4.125,2.15559896 4.125,2.0625 L4.125,1.71875 L6.875,1.71875 L6.875,2.0625 C6.875,2.15559896 6.90901693,2.23616536 6.97705078,2.30419922 C7.04508464,2.37223307 7.12565104,2.40625 7.21875,2.40625 C7.31184896,2.40625 7.39241536,2.37223307 7.46044922,2.30419922 C7.52848307,2.23616536 7.5625,2.15559896 7.5625,2.0625 L7.5625,1.71875 L10.3125,1.71875 L10.3125,10.3125 Z M7.90625,5.5 L8.59375,5.5 C8.68684896,5.5 8.76741536,5.46598307 8.83544922,5.39794922 C8.90348307,5.32991536 8.9375,5.24934896 8.9375,5.15625 L8.9375,4.46875 C8.9375,4.37565104 8.90348307,4.29508464 8.83544922,4.22705078 C8.76741536,4.15901693 8.68684896,4.125 8.59375,4.125 L7.90625,4.125 C7.81315104,4.125 7.73258464,4.15901693 7.66455078,4.22705078 C7.59651693,4.29508464 7.5625,4.37565104 7.5625,4.46875 L7.5625,5.15625 C7.5625,5.24934896 7.59651693,5.32991536 7.66455078,5.39794922 C7.73258464,5.46598307 7.81315104,5.5 7.90625,5.5 Z M7.90625,8.25 L8.59375,8.25 C8.68684896,8.25 8.76741536,8.21598307 8.83544922,8.14794922 C8.90348307,8.07991536 8.9375,7.99934896 8.9375,7.90625 L8.9375,7.21875 C8.9375,7.12565104 8.90348307,7.04508464 8.83544922,6.97705078 C8.76741536,6.90901693 8.68684896,6.875 8.59375,6.875 L7.90625,6.875 C7.81315104,6.875 7.73258464,6.90901693 7.66455078,6.97705078 C7.59651693,7.04508464 7.5625,7.12565104 7.5625,7.21875 L7.5625,7.90625 C7.5625,7.99934896 7.59651693,8.07991536 7.66455078,8.14794922 C7.73258464,8.21598307 7.81315104,8.25 7.90625,8.25 Z M5.84375,6.875 L5.15625,6.875 C5.06315104,6.875 4.98258464,6.90901693 4.91455078,6.97705078 C4.84651693,7.04508464 4.8125,7.12565104 4.8125,7.21875 L4.8125,7.90625 C4.8125,7.99934896 4.84651693,8.07991536 4.91455078,8.14794922 C4.98258464,8.21598307 5.06315104,8.25 5.15625,8.25 L5.84375,8.25 C5.93684896,8.25 6.01741536,8.21598307 6.08544922,8.14794922 C6.15348307,8.07991536 6.1875,7.99934896 6.1875,7.90625 L6.1875,7.21875 C6.1875,7.12565104 6.15348307,7.04508464 6.08544922,6.97705078 C6.01741536,6.90901693 5.93684896,6.875 5.84375,6.875 Z M5.84375,4.125 L5.15625,4.125 C5.06315104,4.125 4.98258464,4.15901693 4.91455078,4.22705078 C4.84651693,4.29508464 4.8125,4.37565104 4.8125,4.46875 L4.8125,5.15625 C4.8125,5.24934896 4.84651693,5.32991536 4.91455078,5.39794922 C4.98258464,5.46598307 5.06315104,5.5 5.15625,5.5 L5.84375,5.5 C5.93684896,5.5 6.01741536,5.46598307 6.08544922,5.39794922 C6.15348307,5.32991536 6.1875,5.24934896 6.1875,5.15625 L6.1875,4.46875 C6.1875,4.37565104 6.15348307,4.29508464 6.08544922,4.22705078 C6.01741536,4.15901693 5.93684896,4.125 5.84375,4.125 Z M3.09375,4.125 L2.40625,4.125 C2.31315104,4.125 2.23258464,4.15901693 2.16455078,4.22705078 C2.09651693,4.29508464 2.0625,4.37565104 2.0625,4.46875 L2.0625,5.15625 C2.0625,5.24934896 2.09651693,5.32991536 2.16455078,5.39794922 C2.23258464,5.46598307 2.31315104,5.5 2.40625,5.5 L3.09375,5.5 C3.18684896,5.5 3.26741536,5.46598307 3.33544922,5.39794922 C3.40348307,5.32991536 3.4375,5.24934896 3.4375,5.15625 L3.4375,4.46875 C3.4375,4.37565104 3.40348307,4.29508464 3.33544922,4.22705078 C3.26741536,4.15901693 3.18684896,4.125 3.09375,4.125 Z M3.09375,6.875 L2.40625,6.875 C2.31315104,6.875 2.23258464,6.90901693 2.16455078,6.97705078 C2.09651693,7.04508464 2.0625,7.12565104 2.0625,7.21875 L2.0625,7.90625 C2.0625,7.99934896 2.09651693,8.07991536 2.16455078,8.14794922 C2.23258464,8.21598307 2.31315104,8.25 2.40625,8.25 L3.09375,8.25 C3.18684896,8.25 3.26741536,8.21598307 3.33544922,8.14794922 C3.40348307,8.07991536 3.4375,7.99934896 3.4375,7.90625 L3.4375,7.21875 C3.4375,7.12565104 3.40348307,7.04508464 3.33544922,6.97705078 C3.26741536,6.90901693 3.18684896,6.875 3.09375,6.875 Z" id="path-1"></path>
    </defs>
    <g id="Master" stroke="none" stroke-width="1" fill="none" fill-rule="evenodd">
        <g id="Profile---Followers" transform="translate(-495.000000, -98.000000)" fill="#A4A4A4" fill-rule="nonzero">
            <g id="Top-Sub-Nav" transform="translate(0.000000, 92.000000)">
                <g id="Shape" transform="translate(495.000000, 6.687500)">
                    <use xlink:href="#path-1"></use>
                    <use xlink:href="#path-1"></use>
                </g>
            </g>
        </g>
    </g>
</svg>