<?xml version="1.0" encoding="UTF-8"?>
<svg width="27px" height="23px" viewBox="0 0 27 23" version="1.1" xmlns="http://www.w3.org/2000/svg" xmlns:xlink="http://www.w3.org/1999/xlink">
    <title>8CBE8619-ACB2-4E59-8C90-3A5363C6A412</title>
    <g id="Master" stroke="none" stroke-width="1" fill="none" fill-rule="evenodd">
        <g id="Group-List" transform="translate(-248.000000, -744.000000)" fill="currentColor" fill-rule="nonzero">
            <g id="Bottom-Nav" transform="translate(0.000000, 726.000000)">
                <g id="People---simple-line-icons" transform="translate(248.000000, 18.000000)">
                    <g id="icon__groups" transform="translate(0.001953, 0.353516)">
                        <path d="M21.0253906,17.9609375 L16.7070312,15.5761719 C17.5091146,14.9316406 18.0498047,14.0865885 18.3291016,13.0410156 C18.6083984,11.9954427 18.7480469,11.1217448 18.7480469,10.4199219 L18.7480469,7.51953125 C18.7480469,7.03255208 18.601237,6.54915365 18.3076172,6.06933594 C18.0139974,5.58951823 17.6272786,5.15625 17.1474609,4.76953125 C16.6676432,4.3828125 16.1197917,4.06770833 15.5039062,3.82421875 C14.8880208,3.58072917 14.2578125,3.45898438 13.6132812,3.45898438 C12.9830729,3.45898438 12.3564453,3.58072917 11.7333984,3.82421875 C11.1103516,4.06770833 10.5553385,4.3828125 10.0683594,4.76953125 C9.58138021,5.15625 9.1875,5.58951823 8.88671875,6.06933594 C8.5859375,6.54915365 8.43554688,7.03255208 8.43554688,7.51953125 L8.43554688,10.4199219 C8.43554688,11.0501302 8.59309896,11.9023438 8.90820312,12.9765625 C9.22330729,14.0507812 9.7890625,14.9101562 10.6054688,15.5546875 L6.15820312,17.9609375 C6.15820312,17.9609375 5.96484375,18.0755208 5.578125,18.3046875 C5.19140625,18.5338542 4.99804688,18.8059896 4.99804688,19.1210938 L4.99804688,20.8613281 C4.99804688,21.1907552 5.11263021,21.4664714 5.34179688,21.6884766 C5.57096354,21.9104818 5.84309896,22.0214844 6.15820312,22.0214844 L21.0253906,22.0214844 C21.3404948,22.0214844 21.6126302,21.9104818 21.8417969,21.6884766 C22.0709635,21.4664714 22.1855469,21.1907552 22.1855469,20.8613281 L22.1855469,19.1210938 C22.1855469,18.7773438 21.9921875,18.4980469 21.6054688,18.2832031 C21.21875,18.0683594 21.0253906,17.9609375 21.0253906,17.9609375 Z M20.8105469,20.6464844 L6.37304688,20.6464844 L6.37304688,19.421875 C6.41601562,19.3932292 6.46972656,19.3574219 6.53417969,19.3144531 C6.59863281,19.2714844 6.65950521,19.2428385 6.71679688,19.2285156 C6.73111979,19.2141927 6.74544271,19.2034505 6.75976562,19.1962891 C6.77408854,19.1891276 6.78841146,19.1855469 6.80273438,19.1855469 L11.25,16.7578125 C11.4505208,16.6575521 11.6152344,16.5107422 11.7441406,16.3173828 C11.8730469,16.1240234 11.9446615,15.9127604 11.9589844,15.6835938 C11.9876302,15.4544271 11.9554036,15.2324219 11.8623047,15.0175781 C11.7692057,14.8027344 11.6367188,14.6236979 11.4648438,14.4804688 C10.8776042,14.0221354 10.4550781,13.366862 10.1972656,12.5146484 C9.93945312,11.6624349 9.81054688,10.9641927 9.81054688,10.4199219 L9.81054688,7.51953125 C9.81054688,7.01822917 10.2008464,6.4453125 10.9814453,5.80078125 C11.7620443,5.15625 12.6393229,4.83398438 13.6132812,4.83398438 C14.6158854,4.83398438 15.4931641,5.15625 16.2451172,5.80078125 C16.9970703,6.4453125 17.3730469,7.01822917 17.3730469,7.51953125 L17.3730469,10.4199219 C17.3730469,10.9641927 17.265625,11.6624349 17.0507812,12.5146484 C16.8359375,13.366862 16.4348958,14.0221354 15.8476562,14.4804688 C15.6614583,14.6236979 15.5218099,14.8027344 15.4287109,15.0175781 C15.335612,15.2324219 15.3033854,15.4544271 15.3320312,15.6835938 C15.3463542,15.9127604 15.4179688,16.1240234 15.546875,16.3173828 C15.6757812,16.5107422 15.8404948,16.6647135 16.0410156,16.7792969 L20.359375,19.1640625 C20.3880208,19.1783854 20.4130859,19.1927083 20.4345703,19.2070312 C20.4560547,19.2213542 20.4739583,19.2285156 20.4882812,19.2285156 C20.5455729,19.2571615 20.6028646,19.2858073 20.6601562,19.3144531 C20.7174479,19.343099 20.7675781,19.3789062 20.8105469,19.421875 L20.8105469,20.6464844 Z M25.8378906,14.5449219 L21.4550781,12.1386719 C22.2571615,11.5084635 22.8085938,10.6669922 23.109375,9.61425781 C23.4101562,8.56152344 23.5605469,7.69140625 23.5605469,7.00390625 L23.5605469,4.10351562 C23.5605469,3.61653646 23.4101562,3.12955729 23.109375,2.64257813 C22.8085938,2.15559896 22.4147135,1.71875 21.9277344,1.33203125 C21.4407552,0.9453125 20.8857422,0.626627604 20.2626953,0.375976562 C19.6396484,0.125325521 19.0058594,0 18.3613281,0 C17.530599,0 16.7213542,0.200520833 15.9335938,0.6015625 C15.1458333,1.00260417 14.5013021,1.49674479 14,2.08398438 C14.2864583,2.09830729 14.5800781,2.11263021 14.8808594,2.12695312 C15.1816406,2.14127604 15.468099,2.19140625 15.7402344,2.27734375 C16.0983073,2.00520833 16.5029297,1.79036458 16.9541016,1.6328125 C17.4052734,1.47526042 17.874349,1.39648438 18.3613281,1.39648438 C19.3639323,1.39648438 20.2519531,1.71875 21.0253906,2.36328125 C21.7988281,3.0078125 22.1855469,3.58789062 22.1855469,4.10351562 L22.1855469,7.00390625 C22.1855469,7.53385417 22.0673828,8.2249349 21.8310547,9.07714844 C21.5947266,9.92936198 21.1829427,10.5917969 20.5957031,11.0644531 C20.4095052,11.2076823 20.2698568,11.3867188 20.1767578,11.6015625 C20.0836589,11.8164062 20.0514323,12.0384115 20.0800781,12.2675781 C20.094401,12.4967448 20.1660156,12.7080078 20.2949219,12.9013672 C20.4238281,13.0947266 20.5885417,13.2486979 20.7890625,13.3632812 L25.171875,15.7480469 C25.2005208,15.7623698 25.2255859,15.773112 25.2470703,15.7802734 C25.2685547,15.7874349 25.2864583,15.7981771 25.3007812,15.8125 C25.3580729,15.8268229 25.4153646,15.851888 25.4726562,15.8876953 C25.5299479,15.9235026 25.5800781,15.9557292 25.6230469,15.984375 L25.6230469,17.2089844 L22.8515625,17.2089844 C23.0520833,17.3665365 23.1988932,17.5598958 23.2919922,17.7890625 C23.3850911,18.0182292 23.4746094,18.2832031 23.5605469,18.5839844 L25.8378906,18.5839844 C26.1529948,18.5839844 26.4251302,18.4729818 26.6542969,18.2509766 C26.8834635,18.0289714 26.9980469,17.7532552 26.9980469,17.4238281 L26.9980469,15.7050781 C26.9980469,15.3613281 26.8046875,15.0820312 26.4179688,14.8671875 C26.03125,14.6523438 25.8378906,14.5449219 25.8378906,14.5449219 Z M1.16015625,14.5449219 L5.54296875,12.1386719 C4.74088542,11.5084635 4.18945312,10.6669922 3.88867188,9.61425781 C3.58789062,8.56152344 3.4375,7.69140625 3.4375,7.00390625 L3.4375,4.10351562 C3.4375,3.61653646 3.58789062,3.12955729 3.88867188,2.64257813 C4.18945312,2.15559896 4.58333333,1.71875 5.0703125,1.33203125 C5.55729167,0.9453125 6.11230469,0.626627604 6.73535156,0.375976562 C7.35839844,0.125325521 7.9921875,0 8.63671875,0 C9.46744792,0 10.2766927,0.200520833 11.0644531,0.6015625 C11.8522135,1.00260417 12.4967448,1.49674479 12.9980469,2.08398438 C12.7115885,2.09830729 12.4179688,2.11263021 12.1171875,2.12695312 C11.8164062,2.14127604 11.5299479,2.19140625 11.2578125,2.27734375 C10.8997396,2.00520833 10.4951172,1.79036458 10.0439453,1.6328125 C9.59277344,1.47526042 9.12369792,1.39648438 8.63671875,1.39648438 C7.63411458,1.39648438 6.74609375,1.71875 5.97265625,2.36328125 C5.19921875,3.0078125 4.8125,3.58789062 4.8125,4.10351562 L4.8125,7.00390625 C4.8125,7.53385417 4.93066406,8.2249349 5.16699219,9.07714844 C5.40332031,9.92936198 5.81510417,10.5917969 6.40234375,11.0644531 C6.58854167,11.2076823 6.7281901,11.3867188 6.82128906,11.6015625 C6.91438802,11.8164062 6.94661458,12.0384115 6.91796875,12.2675781 C6.90364583,12.4967448 6.83203125,12.7080078 6.703125,12.9013672 C6.57421875,13.0947266 6.40950521,13.2486979 6.20898438,13.3632812 L1.82617188,15.7480469 C1.79752604,15.7623698 1.77246094,15.773112 1.75097656,15.7802734 C1.72949219,15.7874349 1.71158854,15.7981771 1.69726562,15.8125 C1.63997396,15.8268229 1.58268229,15.851888 1.52539062,15.8876953 C1.46809896,15.9235026 1.41796875,15.9557292 1.375,15.984375 L1.375,17.2089844 L4.14648438,17.2089844 C3.94596354,17.3665365 3.79915365,17.5598958 3.70605469,17.7890625 C3.61295573,18.0182292 3.5234375,18.2832031 3.4375,18.5839844 L1.16015625,18.5839844 C0.845052083,18.5839844 0.572916667,18.4729818 0.34375,18.2509766 C0.114583333,18.0289714 0,17.7532552 0,17.4238281 L0,15.7050781 C0,15.3613281 0.193359375,15.0820312 0.580078125,14.8671875 C0.966796875,14.6523438 1.16015625,14.5449219 1.16015625,14.5449219 Z"></path>
                    </g>
                </g>
            </g>
        </g>
    </g>
</svg>