<?xml version="1.0" encoding="UTF-8"?>
<svg width="12px" height="10px" viewBox="0 0 12 10" version="1.1" xmlns="http://www.w3.org/2000/svg" xmlns:xlink="http://www.w3.org/1999/xlink">
    <title>54049C78-C607-42F4-B221-02B34C0434B4</title>
    <g id="Master" stroke="none" stroke-width="1" fill="none" fill-rule="evenodd">
        <g id="Groups---List" transform="translate(-362.000000, -99.000000)" fill="#26323F" fill-rule="nonzero">
            <g id="Top-Sub-Nav" transform="translate(0.000000, 92.000000)">
                <g id="subnav__groups--active" transform="translate(362.000000, 7.000000)">
                    <path d="M9.24829565,9.78644143 L2.83220917,9.78644143 L2.83220917,9.20597612 C2.85130467,9.19239799 2.87517404,9.17542532 2.90381728,9.15505811 C2.93246052,9.13469091 2.95951247,9.12111277 2.98497313,9.11432371 C2.9913383,9.10753464 2.99770346,9.10244284 3.00406863,9.0990483 C3.01043379,9.09565377 3.01679896,9.0939565 3.02316413,9.0939565 L4.99954791,7.94320949 C5.08866022,7.89568601 5.16185962,7.82609807 5.21914611,7.73444565 C5.27643259,7.64279323 5.30825842,7.54265448 5.31462358,7.43402939 C5.32735391,7.32540431 5.31303229,7.22017375 5.27165872,7.11833773 C5.23028514,7.01650171 5.17140737,6.93163836 5.09502538,6.86374769 C4.83405361,6.64649751 4.64628124,6.33589765 4.53170827,5.93194811 C4.4171353,5.52799857 4.35984881,5.19703151 4.35984881,4.93904692 L4.35984881,3.56426067 C4.35984881,3.32664329 4.53329956,3.05508057 4.88020106,2.74957251 C5.22710256,2.44406446 5.61696893,2.29131043 6.04980016,2.29131043 C6.49536172,2.29131043 6.88522809,2.44406446 7.21939926,2.74957251 C7.55357043,3.05508057 7.72065601,3.32664329 7.72065601,3.56426067 L7.72065601,4.93904692 C7.72065601,5.19703151 7.67291727,5.52799857 7.5774398,5.93194811 C7.48196232,6.33589765 7.30373769,6.64649751 7.04276592,6.86374769 C6.96001878,6.93163836 6.89795842,7.01650171 6.85658484,7.11833773 C6.81521127,7.22017375 6.80088965,7.32540431 6.81361998,7.43402939 C6.81998514,7.54265448 6.85181097,7.64279323 6.90909745,7.73444565 C6.96638394,7.82609807 7.03958334,7.89908055 7.12869565,7.95339309 L9.04779295,9.0837729 C9.06052328,9.09056197 9.07166232,9.09735104 9.08121007,9.1041401 C9.09075781,9.11092917 9.09871427,9.11432371 9.10507943,9.11432371 C9.1305401,9.12790184 9.15600076,9.14147998 9.18146142,9.15505811 C9.20692208,9.16863625 9.22920016,9.18560892 9.24829565,9.20597612 L9.24829565,9.78644143 Z M11.4824686,6.89429849 L9.53472808,5.75373508 C9.89117733,5.45501609 10.1362362,5.05615835 10.2699047,4.55716185 C10.4035731,4.05816536 10.4704074,3.64572948 10.4704074,3.31985422 L10.4704074,1.94506796 C10.4704074,1.71423965 10.4035731,1.48341134 10.2699047,1.25258303 C10.1362362,1.02175472 9.96119415,0.814688153 9.74477853,0.631383318 C9.52836292,0.448078484 9.28171277,0.297021722 9.00482808,0.178213033 C8.7279434,0.0594043445 8.44628484,0 8.15985241,0 C7.79067283,0 7.431041,0.0950469511 7.08095691,0.285140853 C6.73087283,0.475234756 6.4444404,0.7094576 6.22165962,0.987809385 C6.34896292,0.994598453 6.47944881,1.00138752 6.61311728,1.00817659 C6.74678574,1.01496566 6.87408905,1.03872739 6.99502718,1.0794618 C7.15415631,0.950469511 7.33397223,0.848633492 7.53447493,0.773953745 C7.73497763,0.699273998 7.94343679,0.661934124 8.15985241,0.661934124 C8.60541397,0.661934124 9.00005421,0.814688153 9.34377313,1.12019621 C9.68749205,1.42570427 9.85935151,1.70066152 9.85935151,1.94506796 L9.85935151,3.31985422 C9.85935151,3.57104974 9.80683889,3.89862226 9.70181367,4.30257181 C9.59678844,4.70652135 9.41378995,5.02051574 9.15281817,5.24455498 C9.07007103,5.31244566 9.00801067,5.39730901 8.96663709,5.49914503 C8.92526352,5.60098105 8.9109419,5.7062116 8.92367223,5.81483669 C8.93003739,5.92346178 8.96186322,6.02360053 9.01914971,6.11525295 C9.07643619,6.20690536 9.14963559,6.27988784 9.2387479,6.33420039 L11.1864884,7.4645802 C11.1992188,7.47136927 11.2103578,7.47646107 11.2199056,7.4798556 C11.2294533,7.48325013 11.2374098,7.48834194 11.2437749,7.495131 C11.2692356,7.50192007 11.2946962,7.51380094 11.3201569,7.53077361 C11.3456176,7.54774628 11.3678956,7.56302168 11.3869911,7.57659982 L11.3869911,8.15706513 L10.1553317,8.15706513 C10.244444,8.23174487 10.3096869,8.32339729 10.3510605,8.43202238 C10.3924341,8.54064747 10.4322164,8.66624522 10.4704074,8.80881565 L11.4824686,8.80881565 C11.6225023,8.80881565 11.7434404,8.75620037 11.845283,8.65096982 C11.9471257,8.54573927 11.998047,8.41504971 11.998047,8.25890115 L11.998047,7.44421299 C11.998047,7.28127536 11.9121173,7.14888854 11.7402578,7.04705252 C11.5683984,6.9452165 11.4824686,6.89429849 11.4824686,6.89429849 Z M0.515578378,6.89429849 L2.46331892,5.75373508 C2.10686967,5.45501609 1.86181081,5.05615835 1.72814234,4.55716185 C1.59447387,4.05816536 1.52763964,3.64572948 1.52763964,3.31985422 L1.52763964,1.94506796 C1.52763964,1.71423965 1.59447387,1.48341134 1.72814234,1.25258303 C1.86181081,1.02175472 2.03685285,0.814688153 2.25326847,0.631383318 C2.46968408,0.448078484 2.71633423,0.297021722 2.99321892,0.178213033 C3.2701036,0.0594043445 3.55176216,0 3.83819459,0 C4.20737417,0 4.567006,0.0950469511 4.91709009,0.285140853 C5.26717417,0.475234756 5.5536066,0.7094576 5.77638738,0.987809385 C5.64908408,0.994598453 5.51859819,1.00138752 5.38492972,1.00817659 C5.25126126,1.01496566 5.12395795,1.03872739 5.00301982,1.0794618 C4.84389069,0.950469511 4.66407477,0.848633492 4.46357207,0.773953745 C4.26306937,0.699273998 4.05461021,0.661934124 3.83819459,0.661934124 C3.39263303,0.661934124 2.99799279,0.814688153 2.65427387,1.12019621 C2.31055495,1.42570427 2.13869549,1.70066152 2.13869549,1.94506796 L2.13869549,3.31985422 C2.13869549,3.57104974 2.19120811,3.89862226 2.29623333,4.30257181 C2.40125856,4.70652135 2.58425705,5.02051574 2.84522883,5.24455498 C2.92797597,5.31244566 2.99003633,5.39730901 3.03140991,5.49914503 C3.07278348,5.60098105 3.0871051,5.7062116 3.07437477,5.81483669 C3.06800961,5.92346178 3.03618378,6.02360053 2.97889729,6.11525295 C2.92161081,6.20690536 2.84841141,6.27988784 2.7592991,6.33420039 L0.811558558,7.4645802 C0.798828228,7.47136927 0.787689188,7.47646107 0.778141441,7.4798556 C0.768593693,7.48325013 0.760637237,7.48834194 0.754272071,7.495131 C0.728811411,7.50192007 0.70335075,7.51380094 0.677890089,7.53077361 C0.652429429,7.54774628 0.630151351,7.56302168 0.611055855,7.57659982 L0.611055855,8.15706513 L1.84271531,8.15706513 C1.753603,8.23174487 1.68836006,8.32339729 1.64698649,8.43202238 C1.60561291,8.54064747 1.56583063,8.66624522 1.52763964,8.80881565 L0.515578378,8.80881565 C0.375544744,8.80881565 0.254606606,8.75620037 0.152763964,8.65096982 C0.0509213213,8.54573927 0,8.41504971 0,8.25890115 L0,7.44421299 C0,7.28127536 0.0859297297,7.14888854 0.257789189,7.04705252 C0.429648648,6.9452165 0.515578378,6.89429849 0.515578378,6.89429849 Z" id="icon__groups-copy-2"></path>
                </g>
            </g>
        </g>
    </g>
</svg>