<svg xmlns:xlink="http://www.w3.org/1999/xlink" xmlns="http://www.w3.org/2000/svg" width="12" height="12" viewBox="0 0 12 12" fill="none">
<path fill-rule="evenodd" clip-rule="evenodd" d="M10.2022 0H1.79777C0.808996 0 0 0.808997 0 1.79777V10.2022C0 11.191 0.808996 12 1.79777 12H10.2022C11.191 12 12 11.191 12 10.2022V1.79777C12 0.808997 11.191 0 10.2022 0Z" fill="#0083FA"/>
<path fill-rule="evenodd" clip-rule="evenodd" d="M9.42713 3.43177C9.6765 3.71914 9.65403 4.16176 9.37693 4.42039L4.87698 8.62032C4.74181 8.74648 4.56329 8.81074 4.38182 8.79855C4.20036 8.78636 4.03132 8.69876 3.91297 8.55557L2.56292 6.9222C2.3203 6.62867 2.35307 6.18674 2.6361 5.93512C2.91913 5.68351 3.34526 5.71749 3.58787 6.01102L4.4879 7.09993L8.47386 3.37971C8.75096 3.12108 9.17775 3.14439 9.42713 3.43177Z" fill="white"/>
</svg>