<?xml version="1.0" encoding="UTF-8"?>
<svg width="20px" height="20px" viewBox="0 0 15 15" version="1.1" xmlns="http://www.w3.org/2000/svg" xmlns:xlink="http://www.w3.org/1999/xlink">
    <title>9F06EF9D-2691-42ED-B249-42862AC1CDFC</title>
    <g id="Master" stroke="none" stroke-width="1" fill="none" fill-rule="evenodd">
        <g id="Home" transform="translate(-448.000000, -1698.000000)" fill="#DF5A56" fill-rule="nonzero">
            <g id="Post---Multiple-Images" transform="translate(426.000000, 1228.000000)">
                <g id="post---actions" transform="translate(21.000000, 465.864745)">
                    <g id="Like" transform="translate(0.000000, 3.858093)">
                        <g id="icon__like--active" transform="translate(1.000353, 1.000000)">
                            <path d="M7.11188444,0 C7.36718285,0 7.62020182,0.0797526042 7.87094133,0.239257812 C8.12168085,0.398763021 8.31543411,0.592447917 8.45220112,0.8203125 C8.58896813,1.04817708 8.68014613,1.33528646 8.72573514,1.68164062 C8.77132414,2.02799479 8.78500084,2.39029948 8.76676524,2.76855469 C8.74852964,3.1468099 8.70977899,3.51822917 8.65051328,3.8828125 C8.59124758,4.24739583 8.52970242,4.56184896 8.46587782,4.82617188 C8.91265005,4.82617188 9.47795368,4.82389323 10.1617887,4.81933594 C10.8456238,4.81477865 11.383574,4.8125 11.7756394,4.8125 C12.3135897,4.8125 12.7489646,4.95833333 13.0817644,5.25 C13.4145641,5.54166667 13.5855228,5.92447917 13.5946406,6.3984375 C13.5946406,6.55338542 13.5855228,6.71744792 13.5672872,6.890625 C13.5490516,7.06380208 13.5171393,7.20507812 13.4715503,7.31445312 C13.5900817,7.43294271 13.7108926,7.58105469 13.8339829,7.75878906 C13.9570732,7.93652344 14.0231773,8.13932292 14.0322951,8.3671875 C14.0414129,8.66796875 13.9707499,8.92773438 13.8203062,9.14648438 C13.6698625,9.36523438 13.530816,9.54296875 13.4031668,9.6796875 C13.4305202,9.76171875 13.4669914,9.85970052 13.5125804,9.97363281 C13.5581694,10.0875651 13.576405,10.2128906 13.5672872,10.3496094 C13.5490516,10.686849 13.439638,10.9648438 13.2390464,11.1835938 C13.0384548,11.4023438 12.8560988,11.5709635 12.6919784,11.6894531 C12.710214,11.780599 12.7216112,11.9036458 12.7261701,12.0585938 C12.730729,12.2135417 12.7147729,12.359375 12.6783017,12.4960938 C12.6235949,12.7604167 12.4845484,12.9882812 12.2611623,13.1796875 C12.0377762,13.3710938 11.7414477,13.5260417 11.3721767,13.6445312 C11.0029058,13.7630208 10.5629719,13.851888 10.0523751,13.9111328 C9.54177829,13.9703776 8.97191575,14 8.34278751,14 C6.34598919,14 5.15611622,13.9567057 4.77316859,13.8701172 C4.39022097,13.7835286 4.07565685,13.6490885 3.82947624,13.4667969 C3.70182703,13.3665365 3.46932311,13.2799479 3.13196449,13.2070312 C2.79460587,13.1341146 2.17915433,13.0703125 1.28560988,13.015625 C1.21266747,13.0065104 1.14656342,12.9905599 1.08729772,12.9677734 C1.02803201,12.944987 0.98016356,12.90625 0.943692358,12.8515625 C0.931535291,12.8333333 0.855553619,12.6844618 0.715747344,12.4049479 L0.598925524,12.1708171 C0.55599588,12.0846083 0.509077198,11.9902344 0.458169478,11.8876953 C0.152723159,11.2724609 0,10.4407552 0,9.39257812 C0,8.35351562 0.109413607,7.59016927 0.32824082,7.10253906 C0.547068034,6.61490885 0.661040541,6.35742188 0.670158341,6.33007812 C0.715747344,6.26627604 0.770454147,6.21614583 0.834278751,6.1796875 C0.898103355,6.14322917 0.97104576,6.125 1.05310596,6.125 C1.41781799,6.125 1.81444231,6.01106771 2.24297894,5.78320312 C2.67151556,5.55533854 3.10233164,5.2203776 3.53542717,4.77832031 C3.96852269,4.33626302 4.39250042,3.79394531 4.80736035,3.15136719 C5.22222027,2.50878906 5.60288844,1.77278646 5.94936487,0.943359375 C6.06789627,0.660807292 6.18186878,0.432942708 6.29128239,0.259765625 C6.40069599,0.0865885417 6.67423001,0 7.11188444,0 Z" id="Shape"></path>
                        </g>
                    </g>
                </g>
            </g>
        </g>
    </g>
</svg>