<?xml version="1.0" encoding="UTF-8"?>
<svg width="20px" height="20px" viewBox="0 0 13 14" version="1.1" xmlns="http://www.w3.org/2000/svg" xmlns:xlink="http://www.w3.org/1999/xlink">
    <title>18358235-DCCA-4A62-95A6-D32464F9CC1E</title>
    <g id="Master" stroke="none" stroke-width="1" fill="none" fill-rule="evenodd">
        <g id="Home" transform="translate(-525.000000, -1048.000000)" fill="#A4A4A4" fill-rule="nonzero">
            <g id="Post---Image" transform="translate(426.000000, 311.000000)">
                <g id="Comments" transform="translate(21.000000, 664.000000)">
                    <g id="Posts-/-Comments-/-Comment---Default" transform="translate(0.000000, 32.000000)">
                        <g id="Icon-Like" transform="translate(75.004388, 41.000000)">
                            <g id="icon__like" transform="translate(3.986561, 0.875000)" >
                                <path d="M7.134523,12.8951787 C5.42691586,12.8951787 4.40936914,12.855301 4.08188283,12.7755457 C3.75439653,12.6957904 3.48538993,12.5719597 3.27486302,12.4040537 C3.16570092,12.3117054 2.96686995,12.2319501 2.67837011,12.1647877 C2.38987027,12.0976253 1.863553,12.0388582 1.0994183,11.9884864 C1.03703996,11.9800911 0.980509582,11.9653994 0.929827178,11.9444111 C0.879144775,11.9234229 0.838208987,11.8877429 0.807019815,11.8373711 C0.791425229,11.8121852 0.65302328,11.5162509 0.391813968,10.9495682 C0.130604656,10.3828856 0,9.61681458 0,8.65135524 C0,7.6942912 0.0935675148,6.99118494 0.280702544,6.54203646 C0.467837574,6.09288798 0.565303735,5.8557208 0.573101028,5.8305349 C0.612087493,5.77176781 0.65887125,5.72559367 0.7134523,5.69201247 C0.768033351,5.65843128 0.830411694,5.64164068 0.90058733,5.64164068 C1.21247905,5.64164068 1.55166129,5.53669945 1.91813405,5.32681698 C2.28460682,5.11693452 2.65302891,4.80840729 3.02340032,4.40123531 C3.39377174,3.99406332 3.75634585,3.49454306 4.11112268,2.9026745 C4.46589951,2.31080595 4.79143649,1.63288558 5.08773362,0.868913408 C5.18909843,0.608659151 5.28656459,0.398776685 5.3801321,0.239266011 C5.47369962,0.079755337 5.7076184,0 6.08188846,0 C6.30021266,0 6.51658754,0.073458863 6.7310131,0.220376589 C6.94543865,0.367294315 7.11113113,0.545694411 7.22809052,0.755576877 C7.34504991,0.965459343 7.42302284,1.22991125 7.46200931,1.5489326 C7.50099577,1.86795395 7.51269171,2.20166707 7.49709712,2.55007196 C7.48150254,2.89847685 7.44836404,3.24058527 7.39768164,3.57639722 C7.34699924,3.91220916 7.29436751,4.20184697 7.23978646,4.44531063 C7.62185381,4.44531063 8.10528597,4.4432118 8.69008294,4.43901415 C9.27487991,4.4348165 9.73492019,4.43271768 10.0702038,4.43271768 C10.5302441,4.43271768 10.9025648,4.56704246 11.187166,4.83569201 C11.4717672,5.10434157 11.6179664,5.45694411 11.6257637,5.89349964 C11.6257637,6.03621972 11.6179664,6.18733509 11.6023718,6.34684577 C11.5867773,6.50635644 11.5594867,6.63648357 11.5205003,6.73722715 C11.6218651,6.84636604 11.7251792,6.98278964 11.8304427,7.14649796 C11.9357061,7.31020628 11.9922365,7.49700168 12.0000338,7.70688414 C12.0078311,7.983929 11.947402,8.22319501 11.8187467,8.42468218 C11.6900914,8.62616935 11.5711827,8.78987767 11.4620206,8.91580715 C11.4854124,8.99136484 11.5166016,9.0816143 11.5555881,9.18655553 C11.5945745,9.29149676 11.6101691,9.40693212 11.6023718,9.5328616 C11.5867773,9.84348765 11.4932097,10.0995443 11.3216693,10.3010314 C11.1501288,10.5025186 10.994183,10.6578316 10.8538317,10.7669705 C10.8694263,10.8509235 10.8791729,10.96426 10.8830716,11.1069801 C10.8869702,11.2497002 10.873325,11.3840249 10.8421358,11.5099544 C10.795352,11.7534181 10.6764433,11.9633006 10.4854096,12.1396018 C10.294376,12.3159031 10.0409639,12.4586232 9.72517357,12.5677621 C9.40938321,12.6769009 9.03316383,12.7587551 8.59651542,12.8133245 C8.15986702,12.867894 7.67253621,12.8951787 7.134523,12.8951787 Z M1.29824927,11.1699448 C1.96881646,11.2287119 2.49513373,11.3021708 2.87720108,11.3903214 C3.25926843,11.4784721 3.54386962,11.5981051 3.73100465,11.7492204 C3.87915322,11.8751499 4.0877308,11.9633006 4.35673741,12.0136723 C4.62574401,12.0640441 5.55167255,12.08923 7.134523,12.08923 C7.36844179,12.08923 7.64914434,12.0829336 7.97663064,12.0703406 C8.30411694,12.0577477 8.6199073,12.0262653 8.92400172,11.9758935 C9.22809615,11.9255217 9.49320411,11.849964 9.7193256,11.7492204 C9.94544709,11.6484769 10.0780011,11.5099544 10.1169875,11.3336532 C10.1403794,11.1909331 10.1091902,11.0608059 10.02342,10.9432718 C9.9376498,10.8257376 9.89476469,10.7669705 9.89476469,10.7669705 C9.85577823,10.6662269 9.8538289,10.5633845 9.88891672,10.4584433 C9.92400454,10.353502 9.98833221,10.2800432 10.0818997,10.2380667 C10.089697,10.2380667 10.2183523,10.1709043 10.4678657,10.0365795 C10.7173791,9.90225474 10.8460344,9.72595347 10.8538317,9.5076757 C10.861629,9.35656033 10.8343385,9.24112497 10.7719601,9.16136963 C10.7095818,9.0816143 10.6783926,9.03753898 10.6783926,9.02914368 C10.6238116,8.94519069 10.6062677,8.84864476 10.6257609,8.73950588 C10.6452541,8.63036699 10.6939872,8.54221636 10.7719601,8.47505397 C10.7719601,8.47505397 10.8518824,8.40369393 11.0117269,8.26097385 C11.1715714,8.11825378 11.2514937,7.94195251 11.2514937,7.73207004 C11.2436964,7.55576877 11.1696221,7.41304869 11.0292708,7.30390981 C10.8889195,7.19477093 10.8148453,7.14020149 10.807048,7.14020149 C10.7602642,7.10662029 10.7212777,7.06674262 10.6900886,7.02056848 C10.6588994,6.97439434 10.6355075,6.92192372 10.6199129,6.86315663 C10.6121156,6.81278484 10.614065,6.7582154 10.6257609,6.69944831 C10.6374568,6.64068122 10.6588994,6.58611178 10.6900886,6.53573999 C10.6900886,6.53573999 10.7212777,6.47067642 10.7836561,6.34054929 C10.8460344,6.21042216 10.8772236,6.06560326 10.8772236,5.90609259 C10.8694263,5.57867594 10.7505176,5.38558407 10.5204974,5.32681698 C10.2904773,5.26804989 10.1403794,5.23866635 10.0702038,5.23866635 C9.83628499,5.23866635 9.52829192,5.23866635 9.14622457,5.23866635 C8.76415722,5.23866635 8.39183648,5.23866635 8.02926236,5.23866635 C7.66668824,5.23866635 7.35479653,5.24076517 7.09358722,5.24496282 C6.8323779,5.24916047 6.70177325,5.25125929 6.70177325,5.25125929 C6.63159761,5.25125929 6.56921927,5.2344687 6.51463822,5.2008875 C6.46005717,5.16730631 6.41717206,5.12113217 6.38598289,5.06236508 C6.34699642,5.01199328 6.32555387,4.95322619 6.32165522,4.8860638 C6.31775657,4.81890142 6.32750319,4.75173903 6.35089507,4.68457664 C6.44446258,4.39913648 6.52438483,4.08431278 6.59066182,3.74010554 C6.65693881,3.3958983 6.70372257,3.05798753 6.7310131,2.72637323 C6.75830362,2.39475893 6.76220227,2.09042936 6.74270904,1.8133845 C6.7232158,1.53633965 6.67058408,1.32225953 6.58481385,1.17114416 C6.5302328,1.07879587 6.4795504,0.994842888 6.43276664,0.9192852 C6.38598289,0.843727513 6.26902349,0.805948669 6.08188846,0.805948669 C6.05849658,0.805948669 6.01951012,0.826936915 5.96492907,0.868913408 C5.91034802,0.910889902 5.84796968,1.01583113 5.77779404,1.18373711 C5.46590232,1.98968578 5.12087211,2.70958263 4.74270341,3.34342768 C4.3645347,3.97727273 3.97077141,4.51457184 3.56141353,4.95532502 C3.15205566,5.3960782 2.74074845,5.74238426 2.32749193,5.99424322 C1.91423541,6.24610218 1.51657347,6.39301991 1.13450612,6.4349964 C1.06433048,6.59450708 0.982458905,6.85056368 0.888891391,7.20316623 C0.795323876,7.55576877 0.748540118,8.03849844 0.748540118,8.65135524 C0.748540118,9.27260734 0.816766431,9.80780763 0.953219057,10.2569561 C1.08967168,10.7061046 1.20468175,11.0104342 1.29824927,11.1699448 Z" id="Shape"></path>
                            </g>
                        </g>
                    </g>
                </g>
            </g>
        </g>
    </g>
</svg>