<?xml version="1.0" encoding="UTF-8"?>
<svg width="19px" height="14px" viewBox="0 0 19 14" version="1.1" xmlns="http://www.w3.org/2000/svg" xmlns:xlink="http://www.w3.org/1999/xlink">
    <title>EC27C70E-AB92-4E60-8AB9-D09BB54F6FA0</title>
    <g id="Master" stroke="none" stroke-width="1" fill="none" fill-rule="evenodd">
        <g id="Main---Long" transform="translate(-20.000000, -52.000000)" fill="currentColor">
            <g id="Logo" transform="translate(20.000000, 44.000000)">
                <path d="M9.88662364,19.4791477 C10.4150806,19.4791477 10.8434257,19.919215 10.8434257,20.4627242 C10.8434257,21.0062187 10.4150806,21.446714 9.88662364,21.446714 L0.956802035,21.446714 C0.428364524,21.446714 -5.89528426e-14,21.0062187 -5.89528426e-14,20.4627242 C-5.89528426e-14,19.919215 0.428364524,19.4791477 0.956802035,19.4791477 L9.88662364,19.4791477 Z M17.5408259,13.5756075 C18.0691856,13.5756075 18.4975307,14.0161028 18.4975307,14.5595973 C18.4975307,15.1026933 18.0691856,15.5435871 17.5408259,15.5435871 L0.956802035,15.5435871 C0.428364524,15.5435871 -5.89528426e-14,15.1026933 -5.89528426e-14,14.5595973 C-5.89528426e-14,14.0161028 0.428364524,13.5756075 0.956802035,13.5756075 L17.5408259,13.5756075 Z M14.3515247,8 C14.8799817,8 15.3083268,8.44049529 15.3083268,8.98398977 C15.3083268,9.52749901 14.8799817,9.96799431 14.3515247,9.96799431 L0.956802035,9.96799431 C0.428364524,9.96799431 -5.89528426e-14,9.52749901 -5.89528426e-14,8.98398977 C-5.89528426e-14,8.44049529 0.428364524,8 0.956802035,8 L14.3515247,8 Z" id="icon__menu" transform="translate(9.248765, 14.723357) scale(-1, 1) translate(-9.248765, -14.723357) "></path>
            </g>
        </g>
    </g>
</svg>