<?xml version="1.0" encoding="UTF-8"?>
<svg width="18px" height="21px" viewBox="0 0 18 21" version="1.1" xmlns="http://www.w3.org/2000/svg" xmlns:xlink="http://www.w3.org/1999/xlink">
    <title>C1436721-F8A9-4701-BB63-41EBF7C666A6</title>
    <g id="Master" stroke="none" stroke-width="1" fill="none" fill-rule="evenodd">
        <g id="Main---Long" transform="translate(-236.000000, -48.000000)" fill="currentColor" fill-rule="nonzero">
            <g id="Bell---simple-line-icons-Copy" transform="translate(235.000000, 48.000000)">
                <path d="M17.4846382,13.994077 C17.1172363,13.5479461 16.7334325,13.0230862 16.3332268,12.4194973 C15.9330211,11.8159085 15.7329183,11.1926373 15.7329183,10.549684 L15.7329183,6.4360945 C15.7329183,5.54383268 15.5787407,4.70733721 15.2703855,3.92660811 C14.9620303,3.14587902 14.5355816,2.46356115 13.9910395,1.87965451 C13.4464973,1.29574787 12.8068243,0.836495463 12.0720205,0.501897278 C11.3372166,0.167299093 10.543366,0 9.6904687,0 C8.85069286,0 8.06340302,0.167299093 7.32859916,0.501897278 C6.5937953,0.836495463 5.95740267,1.29574787 5.41942128,1.87965451 C4.88143988,2.46356115 4.45827159,3.14587902 4.1499164,3.92660811 C3.84156121,4.70733721 3.68738361,5.54383268 3.68738361,6.4360945 L3.68738361,10.549684 C3.68738361,11.1795158 3.47743965,11.7863851 3.05755174,12.3702917 C2.63766382,12.9541984 2.25057964,13.4757779 1.89629921,13.9350303 C1.58138327,14.3549182 1.33207482,14.738722 1.14837386,15.0864417 C0.964672891,15.4341614 0.951551394,15.7720399 1.10900936,16.1000774 C1.25334584,16.3887503 1.48625242,16.5691709 1.8077291,16.6413391 C2.12920579,16.7135074 2.44084136,16.7495915 2.7426358,16.7495915 L6.34448685,16.7495915 C6.34448685,17.6812178 6.67252428,18.4750684 7.32859916,19.1311433 C7.98467403,19.7872182 8.77852463,20.1152556 9.71015095,20.1152556 C10.6417773,20.1152556 11.4356279,19.7872182 12.0917027,19.1311433 C12.7477776,18.4750684 13.075815,17.6812178 13.075815,16.7495915 L16.7563951,16.7495915 C16.9532175,16.7495915 17.228769,16.7233485 17.5830494,16.6708625 C17.9373299,16.6183765 18.1931991,16.4281148 18.350657,16.1000774 C18.508115,15.7720399 18.4884327,15.4440025 18.2916103,15.1159651 C18.0947878,14.7879276 17.8257971,14.413965 17.4846382,13.994077 Z M9.71015095,18.7965451 C9.14592656,18.7965451 8.66371152,18.5964423 8.26350585,18.1962366 C7.86330018,17.7960309 7.66319734,17.3138159 7.66319734,16.7495915 L11.7571045,16.7495915 C11.7571045,17.3138159 11.5570017,17.7960309 11.156796,18.1962366 C10.7565904,18.5964423 10.2743753,18.7965451 9.71015095,18.7965451 Z M16.7563951,15.4111988 L2.7426358,15.4111988 C2.69014981,15.4111988 2.64422457,15.4111988 2.60486007,15.4111988 C2.56549558,15.4111988 2.53269184,15.4111988 2.50644884,15.4111988 C2.57205633,15.3062268 2.64750494,15.1946941 2.73279467,15.0766006 C2.81808441,14.9585071 2.90009377,14.8469744 2.97882275,14.7420024 C3.35934618,14.230264 3.79563597,13.616834 4.28769212,12.9017124 C4.77974828,12.1865908 5.02577635,11.4025813 5.02577635,10.549684 L5.02577635,6.4360945 C5.02577635,5.72753364 5.14386983,5.06489802 5.38005679,4.44818764 C5.61624374,3.83147726 5.94428118,3.29349586 6.36416909,2.83424345 C6.78405701,2.37499104 7.27939354,2.01086949 7.85017868,1.74187879 C8.42096382,1.47288809 9.03439383,1.33839274 9.6904687,1.33839274 C10.3596651,1.33839274 10.9796558,1.47288809 11.550441,1.74187879 C12.1212261,2.01086949 12.6165626,2.37499104 13.0364506,2.83424345 C13.4563385,3.29349586 13.7876563,3.83147726 14.030404,4.44818764 C14.2731517,5.06489802 14.3945255,5.72753364 14.3945255,6.4360945 L14.3945255,10.549684 C14.3945255,11.4288243 14.6274321,12.232516 15.0932453,12.9607591 C15.5590584,13.6890022 16.0084697,14.3155537 16.4414791,14.8404136 C16.5202081,14.9322641 16.5989371,15.027395 16.6776661,15.1258062 C16.7563951,15.2242174 16.8285633,15.3193483 16.8941708,15.4111988 C16.8810493,15.4111988 16.8613671,15.4111988 16.8351241,15.4111988 C16.8088811,15.4111988 16.7826381,15.4111988 16.7563951,15.4111988 Z" id="icon_alert"></path>
            </g>
        </g>
    </g>
</svg>