<svg xmlns="http://www.w3.org/2000/svg" xmlns:xlink="http://www.w3.org/1999/xlink" width="52px" height="36px" viewBox="0 0 52 36" version="1.1">
    <title>888187BC-B172-456C-99C7-C019C8189594</title>
    <g id="Master" stroke="none" stroke-width="1" fill="none" fill-rule="evenodd">
        <g id="Home" transform="translate(-724.000000, -7600.000000)" fill="#FFFFFF" fill-rule="nonzero">
            <g id="Post---Image" transform="translate(427.000000, 7437.000000)">
                <g id="eye---simple-line-icons" transform="translate(297.951172, 163.888672)">
                    <path d="M25.1953125,7.91015625 C22.6236979,7.91015625 20.4182943,8.8297526 18.5791016,10.6689453 C16.7399089,12.508138 15.8203125,14.7135417 15.8203125,17.2851562 C15.8203125,19.8893229 16.7399089,22.1028646 18.5791016,23.9257812 C20.4182943,25.7486979 22.6236979,26.6601562 25.1953125,26.6601562 C27.7994792,26.6601562 30.0130208,25.7486979 31.8359375,23.9257812 C33.6588542,22.1028646 34.5703125,19.8893229 34.5703125,17.2851562 C34.5703125,14.7135417 33.6588542,12.508138 31.8359375,10.6689453 C30.0130208,8.8297526 27.7994792,7.91015625 25.1953125,7.91015625 Z M25.1953125,23.5351562 C23.5026042,23.5351562 22.0296224,22.9166667 20.7763672,21.6796875 C19.523112,20.4427083 18.8964844,18.9615885 18.8964844,17.2363281 C18.8964844,15.5110677 19.5068359,14.0380859 20.7275391,12.8173828 C21.9482422,11.5966797 23.421224,10.9863281 25.1464844,10.9863281 C26.8717448,10.9863281 28.3447266,11.5966797 29.5654297,12.8173828 C30.7861328,14.0380859 31.3964844,15.5110677 31.3964844,17.2363281 C31.3964844,18.9615885 30.7942708,20.4427083 29.5898438,21.6796875 C28.3854167,22.9166667 26.9205729,23.5351562 25.1953125,23.5351562 Z M50.0488281,16.8945312 C50.016276,16.8294271 50,16.780599 50,16.7480469 C50,16.7154948 50,16.6829427 50,16.6503906 C50,16.6178385 49.991862,16.5934245 49.9755859,16.5771484 C49.9593099,16.5608724 49.9511719,16.5527344 49.9511719,16.5527344 C49.9511719,16.5201823 49.9511719,16.4957682 49.9511719,16.4794922 C49.9511719,16.4632161 49.9348958,16.4388021 49.9023438,16.40625 C48.7955729,13.8020833 47.3632812,11.4827474 45.6054688,9.44824219 C43.8476562,7.41373698 41.8945312,5.69661458 39.7460938,4.296875 C37.5976562,2.89713542 35.2783203,1.83105469 32.7880859,1.09863281 C30.2978516,0.366210938 27.750651,0 25.1464844,0 C22.5423177,0 19.9869792,0.366210938 17.4804688,1.09863281 C14.9739583,1.83105469 12.6302083,2.89713542 10.4492188,4.296875 C8.26822917,5.69661458 6.2906901,7.41373698 4.51660156,9.44824219 C2.74251302,11.4827474 1.28580729,13.8020833 0.146484375,16.40625 C0.146484375,16.4388021 0.146484375,16.4632161 0.146484375,16.4794922 C0.146484375,16.4957682 0.146484375,16.5201823 0.146484375,16.5527344 C0.146484375,16.5527344 0.138346354,16.5608724 0.122070312,16.5771484 C0.105794271,16.5934245 0.09765625,16.6015625 0.09765625,16.6015625 C0.09765625,16.6666667 0.09765625,16.7154948 0.09765625,16.7480469 C0.09765625,16.780599 0.0813802083,16.813151 0.048828125,16.8457031 C0.048828125,16.9108073 0.0406901042,16.9840495 0.0244140625,17.0654297 C0.00813802083,17.1468099 0,17.2200521 0,17.2851562 C0,17.3502604 0.00813802083,17.4153646 0.0244140625,17.4804688 C0.0406901042,17.5455729 0.048828125,17.6106771 0.048828125,17.6757812 C0.0813802083,17.7408854 0.09765625,17.7897135 0.09765625,17.8222656 C0.09765625,17.8548177 0.09765625,17.8873698 0.09765625,17.9199219 C0.09765625,17.952474 0.105794271,17.976888 0.122070312,17.9931641 C0.138346354,18.0094401 0.146484375,18.0175781 0.146484375,18.0175781 C0.146484375,18.0501302 0.146484375,18.0745443 0.146484375,18.0908203 C0.146484375,18.1070964 0.146484375,18.1315104 0.146484375,18.1640625 C1.28580729,20.7682292 2.734375,23.0794271 4.4921875,25.0976562 C6.25,27.1158854 8.21940104,28.8167318 10.4003906,30.2001953 C12.5813802,31.5836589 14.9169922,32.6416016 17.4072266,33.3740234 C19.8974609,34.1064453 22.4446615,34.4726562 25.0488281,34.4726562 C27.6529948,34.4726562 30.2001953,34.1064453 32.6904297,33.3740234 C35.1806641,32.6416016 37.516276,31.5836589 39.6972656,30.2001953 C41.8782552,28.8167318 43.8476562,27.1158854 45.6054688,25.0976562 C47.3632812,23.0794271 48.7955729,20.7682292 49.9023438,18.1640625 C49.9348958,18.1315104 49.9511719,18.1070964 49.9511719,18.0908203 C49.9511719,18.0745443 49.9511719,18.0501302 49.9511719,18.0175781 C49.9511719,18.0175781 49.9593099,18.0094401 49.9755859,17.9931641 C49.991862,17.976888 50,17.96875 50,17.96875 C50,17.9036458 50,17.8548177 50,17.8222656 C50,17.7897135 50.016276,17.7571615 50.0488281,17.7246094 C50.0488281,17.6595052 50.0569661,17.586263 50.0732422,17.5048828 C50.0895182,17.4235026 50.0976562,17.3502604 50.0976562,17.2851562 C50.0976562,17.2200521 50.0895182,17.1549479 50.0732422,17.0898438 C50.0569661,17.0247396 50.0488281,16.9596354 50.0488281,16.8945312 Z M25.0488281,31.3476562 C22.8352865,31.3476562 20.6542969,31.0546875 18.5058594,30.46875 C16.3574219,29.8828125 14.3310547,29.0039062 12.4267578,27.8320312 C10.5224609,26.6601562 8.77278646,25.1953125 7.17773438,23.4375 C5.58268229,21.6796875 4.26432292,19.6289062 3.22265625,17.2851562 C4.26432292,14.9414062 5.58268229,12.890625 7.17773438,11.1328125 C8.77278646,9.375 10.530599,7.90201823 12.4511719,6.71386719 C14.3717448,5.52571615 16.414388,4.63053385 18.5791016,4.02832031 C20.7438151,3.42610677 22.9329427,3.125 25.1464844,3.125 C27.360026,3.125 29.5410156,3.42610677 31.6894531,4.02832031 C33.8378906,4.63053385 35.8642578,5.52571615 37.7685547,6.71386719 C39.6728516,7.90201823 41.40625,9.375 42.96875,11.1328125 C44.53125,12.890625 45.8333333,14.9414062 46.875,17.2851562 C45.8333333,19.6289062 44.523112,21.6796875 42.9443359,23.4375 C41.3655599,25.1953125 39.6240234,26.6601562 37.7197266,27.8320312 C35.8154297,29.0039062 33.7809245,29.8828125 31.6162109,30.46875 C29.4514974,31.0546875 27.2623698,31.3476562 25.0488281,31.3476562 Z M25.0488281,9.98632812 C24.0826823,9.98632812 23.1735026,10.1686198 22.3212891,10.5332031 C21.4690755,10.8977865 20.726237,11.3968099 20.0927734,12.0302734 C19.4593099,12.663737 18.9602865,13.4065755 18.5957031,14.2587891 C18.2311198,15.1110026 18.0488281,16.0201823 18.0488281,16.9863281 C18.0488281,17.952474 18.2311198,18.8616536 18.5957031,19.7138672 C18.9602865,20.5660807 19.4593099,21.3089193 20.0927734,21.9423828 C20.726237,22.5758464 21.4690755,23.0748698 22.3212891,23.4394531 C23.1735026,23.8040365 24.0826823,23.9863281 25.0488281,23.9863281 C26.014974,23.9863281 26.9241536,23.8040365 27.7763672,23.4394531 C28.6285807,23.0748698 29.3714193,22.5758464 30.0048828,21.9423828 C30.6383464,21.3089193 31.1373698,20.5660807 31.5019531,19.7138672 C31.8665365,18.8616536 32.0488281,17.952474 32.0488281,16.9863281 C32.0488281,16.0201823 31.8665365,15.1110026 31.5019531,14.2587891 C31.1373698,13.4065755 30.6383464,12.663737 30.0048828,12.0302734 C29.3714193,11.3968099 28.6285807,10.8977865 27.7763672,10.5332031 C26.9241536,10.1686198 26.014974,9.98632812 25.0488281,9.98632812 Z M18.9238281,16.9863281 C18.9238281,16.6035156 18.9580078,16.2298177 19.0263672,15.8652344 C19.0947266,15.500651 19.194987,15.1474609 19.3271484,14.8056641 C19.4593099,14.4638672 19.6165365,14.1402995 19.7988281,13.8349609 C19.9811198,13.5296224 20.1907552,13.2402344 20.4277344,12.9667969 L29.0683594,21.6074219 C28.7949219,21.844401 28.5055339,22.0563151 28.2001953,22.2431641 C27.8948568,22.430013 27.5712891,22.5895182 27.2294922,22.7216797 C26.8876953,22.8538411 26.5345052,22.9541016 26.1699219,23.0224609 C25.8053385,23.0908203 25.4316406,23.125 25.0488281,23.125 C24.2011719,23.125 23.4059245,22.9632161 22.6630859,22.6396484 C21.9202474,22.3160807 21.273112,21.8763021 20.7216797,21.3203125 C20.1702474,20.7643229 19.7327474,20.1149089 19.4091797,19.3720703 C19.085612,18.6292318 18.9238281,17.8339844 18.9238281,16.9863281 Z M29.6835938,20.9921875 L21.0429688,12.3515625 C21.3164062,12.1236979 21.6057943,11.9163411 21.9111328,11.7294922 C22.2164714,11.5426432 22.5377604,11.3854167 22.875,11.2578125 C23.2122396,11.1302083 23.563151,11.0322266 23.9277344,10.9638672 C24.2923177,10.8955078 24.6660156,10.8613281 25.0488281,10.8613281 C25.8964844,10.8613281 26.6917318,11.023112 27.4345703,11.3466797 C28.1774089,11.6702474 28.8245443,12.1077474 29.3759766,12.6591797 C29.9274089,13.210612 30.3649089,13.8577474 30.6884766,14.6005859 C31.0120443,15.3434245 31.1738281,16.1386719 31.1738281,16.9863281 C31.1738281,17.3691406 31.1396484,17.7428385 31.0712891,18.1074219 C31.0029297,18.4720052 30.9049479,18.8229167 30.7773438,19.1601562 C30.6497396,19.4973958 30.492513,19.8186849 30.3056641,20.1240234 C30.1188151,20.429362 29.9114583,20.71875 29.6835938,20.9921875 Z" id="Restricted-Icon"/>
                </g>
            </g>
        </g>
    </g>
</svg>