<?xml version="1.0" encoding="UTF-8"?>
<svg width="20px" height="20px" viewBox="0 0 18 14" version="1.1" xmlns="http://www.w3.org/2000/svg" xmlns:xlink="http://www.w3.org/1999/xlink">
    <title>D050AFBE-3372-4C5F-BB7F-126D9B3B2A82</title>
    <g id="Master" stroke="none" stroke-width="1" fill="none" fill-rule="evenodd">
        <g id="Main" transform="translate(-313.000000, -278.000000)" fill="#959699" fill-rule="nonzero">
            <g id="Posts-/-Post-/-No-Image" transform="translate(-1.000000, 87.000000)">
                <g id="Posts-/-Comments-/-Actions-/-Default" transform="translate(19.986328, 187.000000)">
                    <g id="Icon-Share" transform="translate(294.013672, 0.000000)">
                        <g id="icon__share" transform="translate(0.000000, 4.187500)">
                            <path d="M0,13.65625 L0,12.21875 C0,9.64322917 0.733723958,7.60677083 2.20117188,6.109375 C3.69856771,4.55208333 5.83984375,3.71354167 8.625,3.59375 L8.625,0 L17.25,5.75 L8.625,11.5 L8.625,7.90625 C7.24739583,7.93619792 5.94466146,8.23567708 4.71679688,8.8046875 C3.54882812,9.34375 2.42578125,10.4967448 1.34765625,12.2636719 L0.44921875,13.65625 L0,13.65625 Z M9.34375,4.3125 C8.11588542,4.3125 7.0078125,4.4547526 6.01953125,4.73925781 C5.03125,5.02376302 4.24511719,5.38313802 3.66113281,5.81738281 C3.07714844,6.2516276 2.57552083,6.73828125 2.15625,7.27734375 C1.73697917,7.81640625 1.4375,8.36295573 1.2578125,8.91699219 C1.078125,9.47102865 0.943359375,9.96516927 0.853515625,10.3994141 C0.763671875,10.8336589 0.71875,11.2005208 0.71875,11.5 L0.71875,11.9042969 C1.76692708,10.1373698 2.94238281,8.90950521 4.24511719,8.22070312 C5.54785156,7.53190104 7.24739583,7.1875 9.34375,7.1875 L9.34375,10.1074219 L15.9921875,5.75 L9.34375,1.39257812 L9.34375,4.3125 Z"></path>
                        </g>
                    </g>
                </g>
            </g>
        </g>
    </g>
</svg>