<?xml version="1.0" standalone="no"?>
<!DOCTYPE svg PUBLIC "-//W3C//DTD SVG 20010904//EN"
 "http://www.w3.org/TR/2001/REC-SVG-20010904/DTD/svg10.dtd">
<svg version="1.0" xmlns="http://www.w3.org/2000/svg"
 width="64.000000pt" height="64.000000pt" viewBox="0 0 64.000000 64.000000"
 preserveAspectRatio="xMidYMid meet">

<g transform="translate(0.000000,64.000000) scale(0.100000,-0.100000)"
fill="#FFFFFF" stroke="none">
<path d="M160 610 c-19 -19 -20 -33 -20 -290 0 -337 -16 -310 180 -310 196 0
180 -27 180 310 0 337 16 310 -180 310 -127 0 -142 -2 -160 -20z m87 -20 c5
-18 14 -20 73 -20 59 0 68 2 73 20 6 23 55 28 75 8 17 -17 17 -539 0 -556 -17
-17 -279 -17 -296 0 -17 17 -17 539 0 556 20 20 69 15 75 -8z m128 10 c-3 -5
-28 -10 -55 -10 -27 0 -52 5 -55 10 -4 6 17 10 55 10 38 0 59 -4 55 -10z"/>
<path d="M275 430 c-11 -4 -30 -19 -42 -32 -24 -26 -42 -88 -25 -88 5 0 12 13
15 30 8 36 37 67 73 76 30 8 80 -7 77 -23 -1 -6 9 -15 22 -21 24 -11 25 -10
25 19 0 17 -4 28 -9 25 -5 -3 -22 1 -37 9 -32 16 -68 18 -99 5z"/>
<path d="M417 300 c-8 -36 -37 -67 -73 -76 -30 -8 -80 7 -77 23 1 6 -9 15 -22
21 -24 11 -25 10 -25 -19 0 -17 4 -28 9 -25 5 3 23 -2 41 -10 43 -22 96 -12
132 23 28 28 49 93 31 93 -6 0 -13 -13 -16 -30z"/>
<path d="M260 50 c0 -6 27 -10 60 -10 33 0 60 4 60 10 0 6 -27 10 -60 10 -33
0 -60 -4 -60 -10z"/>
</g>
</svg>
